<svg xmlns="http://www.w3.org/2000/svg" xmlns:xlink="http://www.w3.org/1999/xlink" width="500" zoomAndPan="magnify" viewBox="0 0 375 374.999991" height="500" preserveAspectRatio="xMidYMid meet" version="1.0"><defs><clipPath id="id1"><path d="M 9.203125 159 L 96 159 L 96 175 L 9.203125 175 Z M 9.203125 159 " clip-rule="nonzero"/></clipPath><clipPath id="id2"><path d="M 279 159 L 365.453125 159 L 365.453125 175 L 279 175 Z M 279 159 " clip-rule="nonzero"/></clipPath></defs><path fill="#53b79a" d="M 287.675781 300.652344 C 291.105469 300.652344 293.902344 303.453125 293.902344 306.886719 C 293.902344 310.320312 291.105469 313.121094 287.675781 313.121094 C 284.246094 313.121094 281.476562 310.320312 281.476562 306.886719 C 281.476562 303.453125 284.246094 300.652344 287.675781 300.652344 Z M 287.675781 300.652344 " fill-opacity="1" fill-rule="nonzero"/><path fill="#53b79a" d="M 298.988281 205.960938 C 298.988281 206.371094 298.949219 206.777344 298.867188 207.179688 C 298.789062 207.578125 298.671875 207.96875 298.515625 208.347656 C 298.359375 208.726562 298.167969 209.085938 297.9375 209.425781 C 297.710938 209.765625 297.453125 210.082031 297.164062 210.371094 C 296.875 210.660156 296.558594 210.917969 296.21875 211.144531 C 295.878906 211.371094 295.523438 211.566406 295.144531 211.722656 C 294.765625 211.878906 294.375 211.996094 293.976562 212.078125 C 293.574219 212.15625 293.167969 212.195312 292.761719 212.195312 C 292.351562 212.195312 291.945312 212.15625 291.546875 212.078125 C 291.144531 211.996094 290.753906 211.878906 290.375 211.722656 C 290 211.566406 289.640625 211.371094 289.300781 211.144531 C 288.960938 210.917969 288.644531 210.660156 288.355469 210.371094 C 288.066406 210.082031 287.808594 209.765625 287.582031 209.425781 C 287.355469 209.085938 287.164062 208.726562 287.007812 208.347656 C 286.847656 207.96875 286.730469 207.578125 286.652344 207.179688 C 286.570312 206.777344 286.53125 206.371094 286.53125 205.960938 C 286.53125 205.550781 286.570312 205.148438 286.652344 204.746094 C 286.730469 204.34375 286.847656 203.953125 287.007812 203.574219 C 287.164062 203.199219 287.355469 202.839844 287.582031 202.5 C 287.808594 202.15625 288.066406 201.84375 288.355469 201.554688 C 288.644531 201.265625 288.960938 201.003906 289.300781 200.777344 C 289.640625 200.550781 290 200.359375 290.375 200.203125 C 290.753906 200.046875 291.144531 199.925781 291.546875 199.847656 C 291.945312 199.765625 292.351562 199.726562 292.761719 199.726562 C 293.167969 199.726562 293.574219 199.765625 293.976562 199.847656 C 294.375 199.925781 294.765625 200.046875 295.144531 200.203125 C 295.523438 200.359375 295.878906 200.550781 296.21875 200.777344 C 296.558594 201.003906 296.875 201.265625 297.164062 201.554688 C 297.453125 201.84375 297.710938 202.15625 297.9375 202.5 C 298.167969 202.839844 298.359375 203.199219 298.515625 203.574219 C 298.671875 203.953125 298.789062 204.34375 298.867188 204.746094 C 298.949219 205.148438 298.988281 205.550781 298.988281 205.960938 Z M 298.988281 205.960938 " fill-opacity="1" fill-rule="nonzero"/><path fill="#53b79a" d="M 87.105469 300.652344 C 90.535156 300.652344 93.300781 303.453125 93.300781 306.886719 C 93.300781 310.320312 90.535156 313.121094 87.105469 313.121094 C 83.644531 313.121094 80.875 310.320312 80.875 306.886719 C 80.875 303.453125 83.644531 300.652344 87.105469 300.652344 Z M 87.105469 300.652344 " fill-opacity="1" fill-rule="nonzero"/><path fill="#53b79a" d="M 82.019531 199.726562 C 85.449219 199.726562 88.21875 202.527344 88.21875 205.960938 C 88.21875 209.394531 85.449219 212.195312 82.019531 212.195312 C 78.589844 212.195312 75.789062 209.394531 75.789062 205.960938 C 75.789062 202.527344 78.589844 199.726562 82.019531 199.726562 Z M 82.019531 199.726562 " fill-opacity="1" fill-rule="nonzero"/><path fill="#53b79a" d="M 244.40625 99.347656 C 247.835938 99.347656 250.605469 102.117188 250.605469 105.582031 C 250.605469 109.015625 247.835938 111.785156 244.40625 111.785156 C 240.976562 111.785156 238.179688 109.015625 238.179688 105.582031 C 238.179688 102.117188 240.976562 99.347656 244.40625 99.347656 Z M 244.40625 99.347656 " fill-opacity="1" fill-rule="nonzero"/><path fill="#53b79a" d="M 137.140625 81.816406 C 140.570312 81.816406 143.339844 84.589844 143.339844 88.050781 C 143.339844 91.484375 140.570312 94.257812 137.140625 94.257812 C 133.679688 94.257812 130.914062 91.484375 130.914062 88.050781 C 130.914062 84.589844 133.679688 81.816406 137.140625 81.816406 Z M 137.140625 81.816406 " fill-opacity="1" fill-rule="nonzero"/><path fill="#655f68" d="M 358.113281 120.308594 L 358.113281 159.371094 L 287.132812 159.371094 L 287.132812 120.308594 C 287.132812 113.894531 292.339844 108.683594 298.746094 108.683594 L 346.5 108.683594 C 352.90625 108.683594 358.113281 113.894531 358.113281 120.308594 Z M 358.113281 120.308594 " fill-opacity="1" fill-rule="nonzero"/><path fill="#655f68" d="M 87.644531 120.308594 L 87.644531 159.371094 L 16.667969 159.371094 L 16.667969 120.308594 C 16.667969 113.894531 21.871094 108.683594 28.28125 108.683594 L 76.03125 108.683594 C 82.441406 108.683594 87.644531 113.894531 87.644531 120.308594 Z M 87.644531 120.308594 " fill-opacity="1" fill-rule="nonzero"/><path fill="#655f68" d="M 222.894531 12.398438 L 222.894531 51.460938 L 151.886719 51.460938 L 151.886719 12.398438 C 151.886719 5.984375 157.089844 0.773438 163.53125 0.773438 L 211.25 0.773438 C 217.6875 0.773438 222.894531 5.984375 222.894531 12.398438 Z M 222.894531 12.398438 " fill-opacity="1" fill-rule="nonzero"/><path fill="#e15c63" d="M 163.320312 11.796875 L 211.460938 11.796875 L 211.460938 40.4375 L 163.320312 40.4375 Z M 163.320312 11.796875 " fill-opacity="1" fill-rule="nonzero"/><path fill="#e15c63" d="M 28.101562 119.707031 L 76.210938 119.707031 L 76.210938 148.347656 L 28.101562 148.347656 Z M 28.101562 119.707031 " fill-opacity="1" fill-rule="nonzero"/><path fill="#e15c63" d="M 298.566406 119.707031 L 346.679688 119.707031 L 346.679688 148.347656 L 298.566406 148.347656 Z M 298.566406 119.707031 " fill-opacity="1" fill-rule="nonzero"/><path fill="#6fceae" d="M 228.070312 102.570312 L 190.398438 102.570312 L 190.398438 66.640625 C 190.398438 64.976562 189.050781 63.628906 187.390625 63.628906 C 185.730469 63.628906 184.378906 64.976562 184.378906 66.640625 L 184.378906 85.039062 L 153.390625 85.039062 C 151.730469 85.039062 150.378906 86.390625 150.378906 88.050781 C 150.378906 89.714844 151.730469 91.0625 153.390625 91.0625 L 184.378906 91.0625 L 184.378906 131 C 184.378906 132.664062 185.730469 134.011719 187.390625 134.011719 C 189.050781 134.011719 190.398438 132.664062 190.398438 131 L 190.398438 121.089844 L 212.84375 121.089844 C 214.503906 121.089844 215.855469 119.742188 215.855469 118.078125 C 215.855469 116.417969 214.503906 115.066406 212.84375 115.066406 L 190.398438 115.066406 L 190.398438 108.59375 L 228.070312 108.59375 C 229.730469 108.59375 231.078125 107.242188 231.078125 105.582031 C 231.078125 103.917969 229.730469 102.570312 228.070312 102.570312 Z M 228.070312 102.570312 " fill-opacity="1" fill-rule="nonzero"/><path fill="#6fceae" d="M 113.285156 264.15625 L 85.027344 247.203125 L 85.027344 222.136719 C 85.027344 220.46875 83.679688 219.125 82.019531 219.125 C 80.359375 219.125 79.011719 220.46875 79.011719 222.136719 L 79.011719 243.589844 L 68.691406 237.398438 L 68.691406 188.644531 C 68.691406 186.980469 67.34375 185.632812 65.679688 185.632812 C 64.019531 185.632812 62.671875 186.980469 62.671875 188.644531 L 62.671875 232.660156 C 57.921875 227.738281 55.179688 221.15625 55.179688 214.125 L 55.179688 174.550781 C 55.179688 172.886719 53.832031 171.539062 52.171875 171.539062 C 50.511719 171.539062 49.164062 172.886719 49.164062 174.550781 L 49.164062 214.125 C 49.164062 225.257812 54.726562 235.523438 63.949219 241.527344 C 64.308594 241.777344 64.699219 242.027344 65.070312 242.25 L 84.09375 253.664062 L 84.09375 289.867188 C 84.09375 291.535156 85.441406 292.878906 87.105469 292.878906 C 88.765625 292.878906 90.113281 291.535156 90.113281 289.867188 L 90.113281 257.277344 L 96.582031 261.15625 L 96.582031 280.082031 C 96.582031 281.75 97.929688 283.09375 99.589844 283.09375 C 101.25 283.09375 102.601562 281.75 102.601562 280.082031 L 102.601562 264.769531 L 110.289062 269.382812 C 110.757812 269.667969 111.324219 269.8125 111.867188 269.8125 C 113.527344 269.8125 114.859375 268.46875 114.859375 266.800781 C 114.859375 265.660156 114.222656 264.667969 113.285156 264.15625 Z M 113.285156 264.15625 " fill-opacity="1" fill-rule="nonzero"/><path fill="#6fceae" d="M 322.609375 171.539062 C 320.949219 171.539062 319.597656 172.886719 319.597656 174.550781 L 319.597656 214.125 C 319.597656 221.136719 316.875 227.703125 312.105469 232.648438 L 312.105469 188.644531 C 312.105469 186.980469 310.757812 185.632812 309.097656 185.632812 C 307.4375 185.632812 306.089844 186.980469 306.089844 188.644531 L 306.089844 237.390625 L 295.769531 243.476562 L 295.769531 222.136719 C 295.769531 220.46875 294.421875 219.125 292.761719 219.125 C 291.097656 219.125 289.75 220.46875 289.75 222.136719 L 289.75 247.023438 L 255.609375 267.152344 C 254.175781 267.996094 253.699219 269.84375 254.542969 271.273438 C 255.101562 272.230469 256.105469 272.757812 257.136719 272.757812 C 257.65625 272.757812 258.183594 272.625 258.660156 272.34375 L 272.179688 264.371094 L 272.179688 280.078125 C 272.179688 281.742188 273.527344 283.089844 275.1875 283.089844 C 276.847656 283.089844 278.199219 281.742188 278.199219 280.078125 L 278.199219 260.824219 L 284.667969 257.011719 L 284.667969 289.867188 C 284.667969 291.535156 286.015625 292.878906 287.675781 292.878906 C 289.335938 292.878906 290.683594 291.535156 290.683594 289.867188 L 290.683594 253.464844 L 309.722656 242.242188 C 310.082031 242.027344 310.472656 241.777344 310.738281 241.585938 C 320.054688 235.523438 325.617188 225.257812 325.617188 214.125 L 325.617188 174.550781 C 325.617188 172.886719 324.269531 171.539062 322.609375 171.539062 Z M 322.609375 171.539062 " fill-opacity="1" fill-rule="nonzero"/><path fill="#5d5560" d="M 277.894531 334.050781 C 268.539062 321.550781 237.335938 309.054688 237.335938 309.054688 C 243.292969 301.132812 251.75 285.621094 257.136719 269.75 C 260.203125 260.65625 262.28125 251.4375 262.28125 243.457031 C 262.28125 234.996094 258.066406 226.050781 252.921875 218.28125 C 252.921875 218.28125 256.050781 202.859375 249.824219 187.230469 C 243.59375 171.597656 209.234375 131 187.390625 131 C 165.546875 131 128.085938 165.363281 118.726562 190.359375 C 111.808594 208.851562 118.726562 221.59375 118.726562 221.59375 L 118.847656 221.652344 C 113.734375 232.828125 109.371094 245.476562 109.371094 255.957031 C 109.371094 258.757812 110.300781 262.550781 111.835938 266.800781 L 111.867188 266.800781 C 117.164062 281.4375 129.5 301.796875 134.34375 309.054688 C 134.34375 309.054688 109.371094 315.316406 93.753906 337.183594 C 89.269531 343.476562 84.246094 357.332031 79.429688 374.226562 L 292.730469 374.226562 C 290.773438 365.675781 285.328125 343.960938 277.894531 334.050781 Z M 277.894531 334.050781 " fill-opacity="1" fill-rule="nonzero"/><path fill="#504256" d="M 187.390625 202.859375 C 206.105469 202.859375 243.566406 212.226562 243.566406 252.824219 C 243.566406 278.03125 187.390625 315.316406 187.390625 315.316406 C 187.390625 315.316406 131.214844 278.03125 131.214844 252.824219 C 131.214844 212.226562 168.675781 202.859375 187.390625 202.859375 Z M 187.390625 202.859375 " fill-opacity="1" fill-rule="nonzero"/><path fill="#71cc75" d="M 187.089844 246.742188 L 178.8125 248.847656 C 173.246094 250.265625 168.886719 254.601562 167.472656 260.203125 L 165.394531 268.457031 L 163.289062 260.203125 C 161.875 254.601562 157.542969 250.265625 151.945312 248.847656 L 143.699219 246.742188 L 151.945312 244.664062 C 157.542969 243.246094 161.875 238.878906 163.289062 233.308594 L 165.394531 225.027344 L 167.472656 233.308594 C 168.886719 238.878906 173.246094 243.246094 178.8125 244.664062 Z M 187.089844 246.742188 " fill-opacity="1" fill-rule="nonzero"/><g clip-path="url(#id1)"><path fill="#ad6a6a" d="M 95.109375 166.570312 L 95.109375 174.550781 L 9.203125 174.550781 L 9.203125 166.570312 C 9.203125 162.59375 12.425781 159.371094 16.394531 159.371094 L 87.917969 159.371094 C 91.886719 159.371094 95.109375 162.59375 95.109375 166.570312 Z M 95.109375 166.570312 " fill-opacity="1" fill-rule="nonzero"/></g><path fill="#ad6a6a" d="M 230.355469 58.65625 L 230.355469 66.640625 L 144.421875 66.640625 L 144.421875 58.65625 C 144.421875 54.683594 147.640625 51.460938 151.613281 51.460938 L 223.164062 51.460938 C 227.136719 51.460938 230.355469 54.683594 230.355469 58.65625 Z M 230.355469 58.65625 " fill-opacity="1" fill-rule="nonzero"/><g clip-path="url(#id2)"><path fill="#ad6a6a" d="M 365.574219 166.570312 L 365.574219 174.550781 L 279.671875 174.550781 L 279.671875 166.570312 C 279.671875 162.59375 282.890625 159.371094 286.863281 159.371094 L 358.382812 159.371094 C 362.355469 159.371094 365.574219 162.59375 365.574219 166.570312 Z M 365.574219 166.570312 " fill-opacity="1" fill-rule="nonzero"/></g><path fill="#47394f" d="M 187.390625 202.859375 C 187.390625 202.859375 230.507812 222.148438 214.804688 262.09375 C 200.515625 298.457031 148.988281 283.675781 148.988281 283.675781 C 165.445312 300.753906 187.390625 315.316406 187.390625 315.316406 C 187.390625 315.316406 243.566406 278.03125 243.566406 252.824219 C 243.566406 212.226562 206.105469 202.859375 187.390625 202.859375 Z M 187.390625 202.859375 " fill-opacity="1" fill-rule="nonzero"/><path fill="#524956" d="M 203.351562 374.226562 L 292.730469 374.226562 C 290.773438 365.675781 285.328125 343.960938 277.894531 334.050781 C 268.539062 321.550781 237.335938 309.054688 237.335938 309.054688 C 237.335938 309.054688 287.921875 357.234375 203.351562 374.226562 Z M 203.351562 374.226562 " fill-opacity="1" fill-rule="nonzero"/><path fill="#524956" d="M 252.921875 218.28125 C 244.738281 205.960938 234.207031 196.59375 234.207031 196.59375 C 234.207031 196.59375 261.796875 248.347656 238.496094 289.867188 C 226.050781 312.042969 206.792969 340.304688 206.792969 340.304688 C 217.183594 332.113281 230.511719 318.144531 237.335938 309.082031 L 237.335938 309.054688 C 243.292969 301.132812 251.75 285.621094 257.136719 269.75 C 260.203125 260.65625 262.28125 251.4375 262.28125 243.457031 C 262.28125 234.996094 258.066406 226.050781 252.921875 218.28125 Z M 252.921875 218.28125 " fill-opacity="1" fill-rule="nonzero"/><path fill="#524956" d="M 136.011719 190.988281 C 134.628906 190.066406 132.761719 190.4375 131.839844 191.820312 C 131.625 192.144531 126.476562 199.90625 120.804688 210.800781 C 120.035156 212.273438 120.609375 214.097656 122.082031 214.863281 C 122.523438 215.097656 123 215.203125 123.46875 215.203125 C 124.554688 215.203125 125.601562 214.617188 126.140625 213.585938 C 131.65625 202.992188 136.796875 195.238281 136.851562 195.164062 C 137.765625 193.78125 137.394531 191.914062 136.011719 190.988281 Z M 136.011719 190.988281 " fill-opacity="1" fill-rule="nonzero"/><path fill="#524956" d="M 160.023438 343.628906 C 159.910156 343.597656 148.585938 340.632812 143.074219 332.386719 C 140.996094 329.257812 139.375 324.746094 138.382812 319.335938 C 138.3125 318.941406 138.160156 318.578125 137.957031 318.261719 C 145.074219 325.890625 153.917969 332.992188 154.308594 333.304688 C 154.863281 333.746094 155.527344 333.964844 156.183594 333.964844 C 157.066406 333.964844 157.941406 333.574219 158.539062 332.832031 C 159.574219 331.535156 159.363281 329.636719 158.066406 328.601562 C 157.96875 328.523438 148.480469 320.90625 141.566406 313.304688 C 140.449219 312.074219 138.546875 311.980469 137.3125 313.105469 C 136.085938 314.226562 135.996094 316.128906 137.113281 317.355469 C 137.246094 317.503906 137.386719 317.648438 137.523438 317.796875 C 136.851562 317.117188 135.902344 316.726562 134.882812 316.917969 C 133.25 317.21875 132.164062 318.785156 132.460938 320.421875 C 133.613281 326.71875 135.5 331.871094 138.066406 335.730469 C 144.890625 345.941406 158 349.335938 158.550781 349.472656 C 158.800781 349.535156 159.046875 349.5625 159.285156 349.5625 C 160.632812 349.5625 161.855469 348.652344 162.199219 347.289062 C 162.609375 345.675781 161.632812 344.042969 160.023438 343.628906 Z M 160.023438 343.628906 " fill-opacity="1" fill-rule="nonzero"/><path fill="#524956" d="M 197.707031 349.40625 C 199.28125 348.871094 200.128906 347.164062 199.601562 345.585938 C 199.070312 344.015625 197.367188 343.164062 195.789062 343.691406 C 193.84375 344.347656 191.457031 344.527344 188.796875 344.292969 C 189.195312 343.421875 189.632812 342.535156 190.09375 341.621094 C 191.78125 338.246094 193.527344 334.761719 193.527344 330.949219 C 193.527344 328.113281 192.972656 324.445312 191.871094 320.050781 C 191.46875 318.4375 189.835938 317.460938 188.222656 317.863281 C 186.609375 318.265625 185.632812 319.902344 186.03125 321.515625 C 187 325.375 187.507812 328.636719 187.507812 330.949219 C 187.507812 333.335938 186.148438 336.046875 184.710938 338.917969 C 184.023438 340.292969 183.332031 341.703125 182.746094 343.140625 C 179.023438 342.082031 176.277344 340.738281 176.246094 340.722656 C 174.753906 339.980469 172.949219 340.582031 172.210938 342.070312 C 171.464844 343.558594 172.070312 345.367188 173.550781 346.109375 C 173.710938 346.1875 176.914062 347.765625 181.296875 348.992188 C 181.285156 349.222656 181.25 349.453125 181.25 349.683594 C 181.25 352.851562 181.96875 359.203125 183.386719 368.5625 C 183.613281 370.054688 184.894531 371.121094 186.359375 371.121094 C 186.507812 371.121094 186.660156 371.109375 186.816406 371.085938 C 188.457031 370.835938 189.585938 369.300781 189.335938 367.65625 C 188.074219 359.332031 187.355469 353.207031 187.277344 350.210938 C 188.515625 350.359375 189.71875 350.445312 190.871094 350.445312 C 193.359375 350.445312 195.644531 350.097656 197.707031 349.40625 Z M 197.707031 349.40625 " fill-opacity="1" fill-rule="nonzero"/><path fill="#524956" d="M 236.3125 315.066406 C 234.714844 314.667969 233.070312 315.660156 232.675781 317.277344 C 231.578125 321.789062 230.230469 326.003906 228.671875 329.800781 C 226.109375 336.03125 223.058594 340.949219 219.59375 344.417969 C 208.238281 355.785156 196.84375 356.035156 196.746094 356.035156 C 195.085938 356.035156 193.738281 357.378906 193.738281 359.046875 C 193.738281 360.710938 195.085938 362.058594 196.746094 362.058594 C 197.308594 362.058594 210.632812 361.902344 223.847656 348.675781 C 227.878906 344.644531 231.371094 339.066406 234.238281 332.089844 C 235.914062 328.011719 237.355469 323.507812 238.523438 318.703125 C 238.917969 317.089844 237.921875 315.460938 236.3125 315.066406 Z M 236.3125 315.066406 " fill-opacity="1" fill-rule="nonzero"/></svg>